<svg xmlns="http://www.w3.org/2000/svg" width="64" height="64" viewBox="0 0 32 32"><path fill="#005bff" d="M13.677 28.578c.53.401.972.715 1.283.93.163.111.337.228.503.335a1 1 0 0 0 1.074 0 18.4 18.4 0 0 0 .503-.336 38.12 38.12 0 0 0 5.168-4.3C24.987 22.425 28 18.425 28 14c0-6.627-5.373-12-12-12S4 7.373 4 14c0 4.425 3.011 8.425 5.793 11.207a38.12 38.12 0 0 0 3.884 3.371ZM16 4c5.523 0 10 4.477 10 10 0 3.575-2.489 7.075-5.207 9.793A36.139 36.139 0 0 1 16 27.795a36.139 36.139 0 0 1-4.793-4.002C8.49 21.075 6 17.575 6 14 6 8.477 10.477 4 16 4Z"></path><path fill="#005bff" d="M16 8a6 6 0 1 0 0 12 6 6 0 0 0 0-12Zm0 2a4 4 0 1 1 0 8 4 4 0 0 1 0-8Z"></path></svg>
