<svg height="96" width="96" xmlns="http://www.w3.org/2000/svg" xmlns:xlink="http://www.w3.org/1999/xlink"><linearGradient id="a"><stop offset="0" stop-color="#fefefe"/><stop offset="1" stop-color="#fefefe" stop-opacity="0"/></linearGradient><linearGradient id="b" gradientUnits="userSpaceOnUse" x1="36.357143" x2="36.357143" xlink:href="#a" y1="6" y2="63.893143"/><radialGradient id="c" cx="48" cy="90.171875" gradientTransform="matrix(1.1573129 0 0 .99590774 -7.551021 .197132)" gradientUnits="userSpaceOnUse" r="42" xlink:href="#a"/><linearGradient id="d" gradientUnits="userSpaceOnUse" x1="48" x2="48" y1="-6" y2="-128"><stop offset="0" stop-color="#f0f0f0"/><stop offset="1" stop-color="#c6c6c6"/></linearGradient><linearGradient id="e" gradientTransform="matrix(1.0058652 0 0 .994169 100 0)" gradientUnits="userSpaceOnUse" x1="45.447727" x2="45.447727" y1="92.539597" y2="7.01654"><stop offset="0"/><stop offset="1" stop-opacity=".588235"/></linearGradient><linearGradient id="f" gradientTransform="matrix(1.0238095 0 0 -1.0119048 -1.142857 98.071429)" gradientUnits="userSpaceOnUse" x1="32.251034" x2="32.251034" xlink:href="#e" y1="6.131708" y2="90.238609"/><linearGradient id="g" gradientTransform="matrix(1.0238095 0 0 1.0119048 -1.142857 -98.071429)" gradientUnits="userSpaceOnUse" x1="32.251034" x2="32.251034" xlink:href="#e" y1="6.131708" y2="90.238609"/><linearGradient id="h" gradientTransform="translate(0 -97)" gradientUnits="userSpaceOnUse" x1="32.251034" x2="32.251034" xlink:href="#e" y1="6.131708" y2="90.238609"/><g fill="url(#f)"><path d="m12 95.03125c-5.5110903 0-10.03125-4.52016-10.03125-10.03125v-71c0-5.5110902 4.5201598-10.03125 10.03125-10.03125h72c5.51109 0 10.03125 4.5201597 10.03125 10.03125v71c0 5.51109-4.52016 10.03125-10.03125 10.03125z" opacity=".08"/><path d="m12 94.03125c-4.971633 0-9.03125-4.059617-9.03125-9.03125v-71c0-4.9716329 4.0596171-9.03125 9.03125-9.03125h72c4.971633 0 9.03125 4.059617 9.03125 9.03125v71c0 4.971633-4.059617 9.03125-9.03125 9.03125z" opacity=".1"/><path d="m12 93c-4.4091333 0-8-3.590867-8-8v-71c0-4.4091333 3.5908667-8 8-8h72c4.409133 0 8 3.5908667 8 8v71c0 4.409133-3.590867 8-8 8z" opacity=".2"/></g><rect fill="url(#g)" height="85" opacity=".3" rx="7" transform="scale(1 -1)" width="86" x="5" y="-92"/><rect fill="url(#h)" height="84" opacity=".45" rx="6" transform="scale(1 -1)" width="84" x="6" y="-91"/><rect fill="url(#d)" height="84" rx="6" transform="scale(1 -1)" width="84" x="6" y="-90"/><path d="m12 6c-3.324 0-6 2.676-6 6v2 68 2c0 .334721.04135.6507.09375.96875.0487.295596.09704.596915.1875.875.00988.03038.020892.0636.03125.09375.098865.287771.2348802.547452.375.8125.1445918.273507.3156161.535615.5.78125s.3737765.473472.59375.6875c.439947.428056.94291.814526 1.5 1.09375.278545.139612.5734731.246947.875.34375-.2562018-.100222-.4867109-.236272-.71875-.375-.00741-.0044-.023866.0045-.03125 0-.031933-.0193-.062293-.04251-.09375-.0625-.120395-.0767-.2310226-.163513-.34375-.25-.1061728-.0808-.2132809-.161112-.3125-.25-.1779299-.161433-.3474596-.345388-.5-.53125-.1075789-.130255-.2183939-.265285-.3125-.40625-.025089-.03838-.038446-.08587-.0625-.125-.064763-.103032-.1302275-.204517-.1875-.3125-.1010083-.194706-.2056748-.415701-.28125-.625-.00796-.02181-.023589-.04055-.03125-.0625-.0318251-.09195-.0358045-.186831-.0625-.28125-.0303323-.106618-.0703894-.203031-.09375-.3125-.0728786-.341512-.125-.698205-.125-1.0625v-2-68-2c0-2.781848 2.2181517-5 5-5h2 68 2c2.781848 0 5 2.218152 5 5v2 68 2c0 .364295-.05212.720988-.125 1.0625-.04415.206893-.08838.397658-.15625.59375-.0077.02195-.0233.04069-.03125.0625-.06274.173739-.138383.367449-.21875.53125-.04158.0828-.07904.169954-.125.25-.0546.09721-.126774.18835-.1875.28125-.09411.140965-.204921.275995-.3125.40625-.143174.17445-.303141.346998-.46875.5-.01117.0102-.01998.02115-.03125.03125-.138386.125556-.285091.234436-.4375.34375-.102571.07315-.204318.153364-.3125.21875-.0074.0045-.02384-.0044-.03125 0-.232039.138728-.462548.274778-.71875.375.301527-.0968.596455-.204138.875-.34375.55709-.279224 1.060053-.665694 1.5-1.09375.219973-.214028.409366-.441865.59375-.6875s.355408-.507743.5-.78125c.14012-.265048.276135-.524729.375-.8125.01041-.03078.02133-.06274.03125-.09375.09046-.278085.1388-.579404.1875-.875.0524-.31805.09375-.634029.09375-.96875v-2-68-2c0-3.324-2.676-6-6-6z" fill="url(#b)" opacity=".5"/><path d="m12 90c-3.324 0-6-2.676-6-6v-2-68-2c0-.334721.04135-.6507.09375-.96875.0487-.295596.09704-.596915.1875-.875.00988-.03038.020892-.0636.03125-.09375.098865-.287771.2348802-.547452.375-.8125.1445918-.273507.3156161-.535615.5-.78125s.3737765-.473472.59375-.6875c.439947-.428056.94291-.814526 1.5-1.09375.278545-.139612.5734731-.246947.875-.34375-.2562018.100222-.4867109.236272-.71875.375-.00741.0044-.023866-.0045-.03125 0-.031933.0193-.062293.04251-.09375.0625-.120395.0767-.2310226.163513-.34375.25-.1061728.0808-.2132809.161112-.3125.25-.1779299.161433-.3474596.345388-.5.53125-.1075789.130255-.2183939.265285-.3125.40625-.025089.03838-.038446.08587-.0625.125-.064763.103032-.1302275.204517-.1875.3125-.1010083.194706-.2056748.415701-.28125.625-.00796.02181-.023589.04055-.03125.0625-.0318251.09195-.0358045.186831-.0625.28125-.0303323.106618-.0703894.203031-.09375.3125-.0728786.341512-.125.698205-.125 1.0625v2 68 2c0 2.781848 2.2181517 5 5 5h2 68 2c2.781848 0 5-2.218152 5-5v-2-68-2c0-.364295-.05212-.720988-.125-1.0625-.04415-.206893-.08838-.397658-.15625-.59375-.0077-.02195-.0233-.04069-.03125-.0625-.06274-.173739-.138383-.367449-.21875-.53125-.04158-.0828-.07904-.169954-.125-.25-.0546-.09721-.126774-.18835-.1875-.28125-.09411-.140965-.204921-.275995-.3125-.40625-.143174-.17445-.303141-.346998-.46875-.5-.01117-.0102-.01998-.02115-.03125-.03125-.138386-.125556-.285091-.234436-.4375-.34375-.102571-.07315-.204318-.153364-.3125-.21875-.0074-.0045-.02384.0044-.03125 0-.232039-.138728-.462548-.274778-.71875-.375.301527.0968.596455.204138.875.34375.55709.279224 1.060053.665694 1.5 1.09375.219973.214028.409366.441865.59375.6875s.355408.507743.5.78125c.14012.265048.276135.524729.375.8125.01041.03078.02133.06274.03125.09375.09046.278085.1388.579404.1875.875.0524.31805.09375.634029.09375.96875v2 68 2c0 3.324-2.676 6-6 6z" fill="url(#c)" opacity=".3"/><path d="m34.874388 57.510082c-1.116637-.21935-4.849146-1.27115-8.294462-2.33734-6.223117-1.92581-6.288802-1.93525-10.011807-1.43784-2.061174.27538-3.921283.33222-4.13357.12632-.61352-.59505 1.518883-2.32833 4.785962-3.89017 4.369604-2.0889 8.309514-2.00457 16.673616.35689 7.719587 2.1795 9.926243 2.12448 16.007329-.39906 5.329786-2.21176 6.224159-2.42491 6.224159-1.4833 0 1.15677-2.759317 4.0083-5.756043 5.94839-4.855139 3.14323-10.044501 4.18682-15.495184 3.11611z" fill="#00f" stroke-width=".463156"/><path d="m57.189266 42.355808c-1.116637-.21935-4.849146-1.27115-8.294462-2.33734-6.223117-1.92581-6.288802-1.93525-10.011807-1.43784-2.061174.27538-3.921283.33222-4.13357.12632-.61352-.59505 1.518883-2.32833 4.785962-3.89017 4.369604-2.0889 8.309514-2.00457 16.673616.35689 7.719587 2.1795 9.926243 2.12448 16.007329-.39906 5.329786-2.21176 6.224159-2.42491 6.224159-1.4833 0 1.15677-2.759317 4.0083-5.756043 5.94839-4.855139 3.14323-10.044501 4.18682-15.495184 3.11611z" fill="#009533" stroke-width=".463156"/><path d="m46.206215 28.11852c-1.116637-.21935-4.849146-1.27115-8.294462-2.33734-6.223118-1.92581-6.288803-1.93525-10.011808-1.43784-2.061174.27538-3.921283.33222-4.13357.12632-.61352-.59505 1.518883-2.32833 4.785962-3.89017 4.369604-2.0889 8.309515-2.00457 16.673617.35689 7.719587 2.1795 9.926243 2.12448 16.007329-.39906 5.329786-2.21176 6.224159-2.42491 6.224159-1.4833 0 1.15677-2.759317 4.0083-5.756043 5.94839-4.855139 3.14323-10.044501 4.18682-15.495184 3.11611z" fill="#f52b1e" stroke-width=".463156"/><path d="m60.830584 82.862589c-2.653878-.55729-5.384816-2.06016-6.06997-3.34038-1.496544-2.79633-.0967-6.70162 2.759035-7.69713 1.412248-.49231 1.54871-.73573 1.186388-2.1163-.587517-2.23866-.215823-3.73754 1.273905-5.13706l1.30364-1.22471-1.333109-1.96445c-1.254263-1.84826-1.614039-3.43109-1.345475-5.91935.211651-1.960903 1.755779-3.596432 4.80302-5.087305 2.92169-1.429451 3.236621-1.466351 9.495646-1.112627 5.814962.32863 6.694542.253287 8.643691-.740446 1.193477-.60847 2.302629-.973637 2.464787-.811483.66161.661609-1.061452 2.268593-4.008052 3.738037l-3.12762 1.559715v2.930439c0 5.01076-2.860716 7.37997-9.643096 7.98629-3.901076.34875-3.912911.35483-3.912911 2.00973 0 1.65575.0098 1.66079 3.93428 2.01156 2.177382.19461 4.561474.7626 5.338781 1.27191 4.302959 2.81941 2.943612 10.58581-2.211272 12.63373-2.675912 1.06308-7.080529 1.52875-9.551668 1.00983zm7.76575-3.10444c1.629941-.84287 2.459878-2.62595 2.097673-4.50673-.273538-1.42036-2.364516-2.22841-6.57172-2.53961l-3.624627-.26811-1.243584 1.89711c-1.436085 2.19077-1.217241 3.50718.853874 5.13632 1.743783 1.37166 6.100402 1.5159 8.488384.28102zm.664526-18.50973c2.941764-2.31399 3.00405-9.03094.09053-9.76219-4.021393-1.009303-6.903134 7.55037-3.374118 10.02219 1.509735 1.05746 1.619793 1.04874 3.283591-.26z" stroke-width=".553306"/></svg>